<?xml version="1.0" encoding="utf-8"?>
<!-- Generator: Adobe Illustrator 23.0.0, SVG Export Plug-In . SVG Version: 6.00 Build 0)  -->
<svg version="1.1" id="layer" xmlns="http://www.w3.org/2000/svg" xmlns:xlink="http://www.w3.org/1999/xlink" x="0px" y="0px"
	 viewBox="0 0 652 652" style="enable-background:new 0 0 652 652;" xml:space="preserve">
<style type="text/css">
	.st0{clip-path:url(#SVGID_2_);fill:url(#SVGID_3_);}
	.st1{clip-path:url(#SVGID_5_);fill:url(#SVGID_6_);}
	.st2{clip-path:url(#SVGID_8_);fill:url(#SVGID_9_);}
	.st3{clip-path:url(#SVGID_11_);fill:url(#SVGID_12_);}
	.st4{clip-path:url(#SVGID_14_);fill:url(#SVGID_15_);}
	.st5{clip-path:url(#SVGID_17_);fill:url(#SVGID_18_);}
	.st6{fill:#FFFFFF;}
	.st7{clip-path:url(#SVGID_20_);fill:url(#SVGID_21_);}
</style>
<g>
	<g>
		<g>
			<defs>
				<path id="SVGID_1_" d="M194.3,428.6c10.4-5.1,19.8-11.8,28.1-19.7l-24.7-26.1L194.3,428.6z"/>
			</defs>
			<clipPath id="SVGID_2_">
				<use xlink:href="#SVGID_1_"  style="overflow:visible;"/>
			</clipPath>
			
				<linearGradient id="SVGID_3_" gradientUnits="userSpaceOnUse" x1="476.1797" y1="743.8663" x2="481.9177" y2="743.8663" gradientTransform="matrix(13.8332 13.8332 13.8332 -13.8332 -16739.5391 4037.9148)">
				<stop  offset="0" style="stop-color:#0096D6"/>
				<stop  offset="0.3926" style="stop-color:#0096D6"/>
				<stop  offset="0.6216" style="stop-color:#0067B2"/>
				<stop  offset="0.9575" style="stop-color:#005A9B"/>
				<stop  offset="1" style="stop-color:#005A9B"/>
			</linearGradient>
			<polygon class="st0" points="208.3,368.7 245.2,405.7 208.3,442.6 171.4,405.7 			"/>
		</g>
	</g>
</g>
<g>
	<g>
		<g>
			<defs>
				<path id="SVGID_4_" d="M224.2,264.3c0,27.5-7.3,53.2-20,75.5l35.9-36.3c0.2-0.2,0.5-0.2,0.7,0s0.3,0.5,0.1,0.8l-32.3,48.9
					l47.1-10.1c0.6-4.8,1-9.6,1-14.5c0-31.1-12.7-59.1-33.2-79.3C224,254.1,224.2,259.1,224.2,264.3"/>
			</defs>
			<clipPath id="SVGID_5_">
				<use xlink:href="#SVGID_4_"  style="overflow:visible;"/>
			</clipPath>
			
				<linearGradient id="SVGID_6_" gradientUnits="userSpaceOnUse" x1="476.1797" y1="747.6606" x2="481.9177" y2="747.6606" gradientTransform="matrix(13.8332 13.8332 13.8332 -13.8332 -16728.6758 4027.0515)">
				<stop  offset="0" style="stop-color:#0096D6"/>
				<stop  offset="0.3926" style="stop-color:#0096D6"/>
				<stop  offset="0.6216" style="stop-color:#0067B2"/>
				<stop  offset="0.9575" style="stop-color:#005A9B"/>
				<stop  offset="1" style="stop-color:#005A9B"/>
			</linearGradient>
			<polygon class="st1" points="230.4,222.8 308.7,301.1 230.4,379.3 152.2,301.1 			"/>
		</g>
	</g>
</g>
<g>
	<g>
		<g>
			<defs>
				<path id="SVGID_7_" d="M226.5,404.7c5.9-6.3,11.1-13.3,15.4-20.8l-33.5-8L226.5,404.7z"/>
			</defs>
			<clipPath id="SVGID_8_">
				<use xlink:href="#SVGID_7_"  style="overflow:visible;"/>
			</clipPath>
			
				<linearGradient id="SVGID_9_" gradientUnits="userSpaceOnUse" x1="476.1797" y1="744.7164" x2="481.9177" y2="744.7164" gradientTransform="matrix(13.8332 13.8332 13.8332 -13.8332 -16735.2246 4033.5994)">
				<stop  offset="0" style="stop-color:#0096D6"/>
				<stop  offset="0.3926" style="stop-color:#0096D6"/>
				<stop  offset="0.6216" style="stop-color:#0067B2"/>
				<stop  offset="0.9575" style="stop-color:#005A9B"/>
				<stop  offset="1" style="stop-color:#005A9B"/>
			</linearGradient>
			<polygon class="st2" points="225.1,359.2 256.3,390.3 225.1,421.5 194,390.3 			"/>
		</g>
	</g>
</g>
<g>
	<g>
		<g>
			<defs>
				<path id="SVGID_10_" d="M77.6,417c18.8,14.3,42.2,22.9,67.6,22.9c14.8,0,28.9-2.9,41.9-8.2l-2.6-49.1l-41.7,42.2
					c-0.2,0.2-0.5,0.2-0.8,0c-0.2-0.2-0.3-0.5-0.1-0.7l29.1-44C145.8,401.9,113.2,415.6,77.6,417"/>
			</defs>
			<clipPath id="SVGID_11_">
				<use xlink:href="#SVGID_10_"  style="overflow:visible;"/>
			</clipPath>
			
				<linearGradient id="SVGID_12_" gradientUnits="userSpaceOnUse" x1="476.1797" y1="741.3376" x2="481.9177" y2="741.3376" gradientTransform="matrix(13.8332 13.8332 13.8332 -13.8332 -16744.6855 4043.0603)">
				<stop  offset="0" style="stop-color:#0096D6"/>
				<stop  offset="0.3926" style="stop-color:#0096D6"/>
				<stop  offset="0.6216" style="stop-color:#0067B2"/>
				<stop  offset="0.9575" style="stop-color:#005A9B"/>
				<stop  offset="1" style="stop-color:#005A9B"/>
			</linearGradient>
			<polygon class="st3" points="132.4,325.3 217,410 132.4,494.6 47.7,410 			"/>
		</g>
	</g>
</g>
<g>
	<g>
		<g>
			<defs>
				<path id="SVGID_13_" d="M212.7,364.5l32.9,12.5c4.2-8.6,7.3-17.8,9.1-27.5L212.7,364.5z"/>
			</defs>
			<clipPath id="SVGID_14_">
				<use xlink:href="#SVGID_13_"  style="overflow:visible;"/>
			</clipPath>
			
				<linearGradient id="SVGID_15_" gradientUnits="userSpaceOnUse" x1="476.1797" y1="745.7699" x2="481.9177" y2="745.7699" gradientTransform="matrix(13.8332 13.8332 13.8332 -13.8332 -16732.0215 4030.3972)">
				<stop  offset="0" style="stop-color:#0096D6"/>
				<stop  offset="0.3926" style="stop-color:#0096D6"/>
				<stop  offset="0.6216" style="stop-color:#0067B2"/>
				<stop  offset="0.9575" style="stop-color:#005A9B"/>
				<stop  offset="1" style="stop-color:#005A9B"/>
			</linearGradient>
			<polygon class="st4" points="233.7,328.6 268.4,363.4 233.7,398.1 199,363.4 			"/>
		</g>
	</g>
</g>
<g>
	<g>
		<g>
			<defs>
				<path id="SVGID_16_" d="M33.7,328.4c0,33.1,14.5,62.9,37.4,83.3h0.1c36.1,0,69.2-13,94.8-34.5l-76,16.3
					c-0.3,0.1-0.6-0.1-0.7-0.4s0.1-0.6,0.4-0.7L170,364l-79.5-30.3c-0.3-0.1-0.4-0.4-0.4-0.7c0.1-0.3,0.4-0.4,0.7-0.4l83.5,20
					L142.8,303c-0.1-0.2-0.1-0.6,0.1-0.7c0.2-0.2,0.5-0.2,0.8,0.1l41.2,43.4l7.1-94.5c0-0.3,0.3-0.5,0.6-0.5s0.5,0.2,0.6,0.5
					l4.6,88.8c13.3-22.2,21-48.1,21-75.8c0-7.1-0.5-14-1.5-20.8C197.9,227,172.7,217,145.2,217C83.7,216.9,33.7,266.9,33.7,328.4"/>
			</defs>
			<clipPath id="SVGID_17_">
				<use xlink:href="#SVGID_16_"  style="overflow:visible;"/>
			</clipPath>
			
				<linearGradient id="SVGID_18_" gradientUnits="userSpaceOnUse" x1="491.4276" y1="744.6314" x2="497.1655" y2="744.6314" gradientTransform="matrix(19.88 19.88 19.88 -19.88 -24508.8789 5285.7134)">
				<stop  offset="0" style="stop-color:#FFED00"/>
				<stop  offset="4.132000e-03" style="stop-color:#FFED00"/>
				<stop  offset="0.2934" style="stop-color:#FFD500"/>
				<stop  offset="0.3711" style="stop-color:#FBC002"/>
				<stop  offset="0.5313" style="stop-color:#F28908"/>
				<stop  offset="0.686" style="stop-color:#E84E0F"/>
				<stop  offset="1" style="stop-color:#E84E0F"/>
			</linearGradient>
			<polygon class="st5" points="126.3,124.4 316.2,314.3 126.3,504.3 -63.7,314.3 			"/>
		</g>
	</g>
</g>
<g>
	<path class="st6" d="M197.8,340.1l-4.6-88.8c0-0.3-0.2-0.5-0.6-0.5c-0.3,0-0.5,0.2-0.6,0.5l-7.1,94.5l-41.2-43.4
		c-0.2-0.2-0.5-0.3-0.8,0c-0.2,0.2-0.3,0.5-0.1,0.7l31.4,49.6l-83.5-20c-0.3,0-0.6,0.1-0.7,0.4s0.1,0.6,0.3,0.7L170,364l-80.2,28.5
		c-0.3,0.1-0.4,0.4-0.4,0.7c0.1,0.3,0.4,0.5,0.7,0.4l76-16.3C178.6,366.7,189.4,354.2,197.8,340.1"/>
	<rect x="307.2" y="253.1" class="st6" width="27" height="158.5"/>
	<path class="st6" d="M496.9,327.7v69.2c-16.9,11-35.2,17.3-59,17.3c-45.2,0-84.1-32.9-84.1-81.7c0-49.3,39.6-82,84.1-82
		c23.4,0,40,6.5,56.2,16.4l-12.3,21.6c-12.8-8.2-27.9-13.2-42.6-13.2c-36.1,0-56.4,25.5-56.4,57.1c0,33.7,24.9,57.7,56.2,57.7
		c13.6,0,22.7-2.4,32-7.6v-31.1h-37v-23.8h62.9L496.9,327.7L496.9,327.7z"/>
	<polygon class="st6" points="583.6,277.7 583.6,411.6 556.5,411.6 556.5,277.7 506.2,277.7 506.2,253.1 633.7,253.1 633.7,277.7 	
		"/>
</g>
<g>
	<g>
		<g>
			<defs>
				<path id="SVGID_19_" d="M33.7,328.4c0,33.1,14.5,62.9,37.4,83.3h0.1c81.5,0,147.5-66,147.5-147.5c0-7.1-0.5-14-1.5-20.8
					c-19.4-16.5-44.6-26.5-72.1-26.5C83.7,216.9,33.7,266.9,33.7,328.4"/>
			</defs>
			<clipPath id="SVGID_20_">
				<use xlink:href="#SVGID_19_"  style="overflow:visible;"/>
			</clipPath>
			
				<linearGradient id="SVGID_21_" gradientUnits="userSpaceOnUse" x1="491.4276" y1="744.6314" x2="497.1655" y2="744.6314" gradientTransform="matrix(19.88 19.88 19.88 -19.88 -24508.8789 5285.7134)">
				<stop  offset="0" style="stop-color:#FFED00"/>
				<stop  offset="4.132000e-03" style="stop-color:#FFED00"/>
				<stop  offset="0.2934" style="stop-color:#FFD500"/>
				<stop  offset="0.3711" style="stop-color:#FBC002"/>
				<stop  offset="0.5313" style="stop-color:#F28908"/>
				<stop  offset="0.686" style="stop-color:#E84E0F"/>
				<stop  offset="1" style="stop-color:#E84E0F"/>
			</linearGradient>
			<polygon class="st7" points="126.3,124.4 316.2,314.3 126.3,504.3 -63.7,314.3 			"/>
		</g>
	</g>
</g>
<g>
	<path class="st6" d="M255.7,342.9L208.6,353l32.3-48.9c0.2-0.2,0.1-0.6-0.1-0.7c-0.2-0.2-0.5-0.2-0.7,0l-35.9,36.3
		c12.7-22.3,20-48.1,20-75.5c0-5.1-0.3-10.2-0.8-15.2c-2-2-4-3.9-6.1-5.7c1,6.8,1.5,13.8,1.5,20.8c0,27.7-7.7,53.7-21,75.8
		l-4.6-88.8c0-0.3-0.2-0.5-0.6-0.5c-0.3,0-0.5,0.2-0.6,0.5l-7.1,94.5l-41.2-43.4c-0.2-0.2-0.5-0.3-0.8-0.1c-0.2,0.2-0.3,0.5-0.1,0.7
		l31.4,49.6l-83.5-20c-0.3,0-0.6,0.1-0.7,0.4s0.1,0.6,0.3,0.7L170,364l-80.2,28.5c-0.3,0.1-0.4,0.4-0.4,0.7c0.1,0.3,0.4,0.5,0.7,0.4
		l76-16.3c-25.6,21.5-58.7,34.5-94.8,34.5h-0.1c2.1,1.8,4.2,3.6,6.4,5.3c35.6-1.5,68.1-15.1,93.4-37l-29.1,44
		c-0.1,0.2-0.1,0.6,0.1,0.7c0.2,0.2,0.6,0.2,0.8,0l41.7-42.2l2.6,49.1c2.4-1,4.8-2,7.2-3.2l3.4-45.8l24.7,26.1
		c1.4-1.3,2.8-2.7,4.1-4.1l-18.1-28.8l33.5,8c1.3-2.2,2.5-4.5,3.7-6.9l-32.9-12.5l42-14.9C255.1,347.4,255.4,345.2,255.7,342.9"/>
	<path class="st6" d="M603.9,399.7v11.5h-2.3v-11.5h-4.2v-2h10.8v2H603.9z M622.2,411.1l-0.1-8.4l-4.3,6.6h-0.2l-4.4-6.6l-0.1,8.4
		h-2.2l0.6-13.7h0.3l5.9,8.9l5.9-8.9h0.3l0.6,13.7H622.2z"/>
</g>
</svg>
