<?xml version="1.0" encoding="utf-8"?>
<!-- Generator: Adobe Illustrator 23.0.0, SVG Export Plug-In . SVG Version: 6.00 Build 0)  -->
<svg version="1.1" id="Layer_1" xmlns="http://www.w3.org/2000/svg" xmlns:xlink="http://www.w3.org/1999/xlink" x="0px" y="0px"
	 viewBox="0 0 150 150" style="enable-background:new 0 0 150 150;" xml:space="preserve">
<style type="text/css">
	.st0{fill:#666666;}
</style>
<path class="st0" d="M147.6,44.4c-0.8-1.7-2.2-3-4-3.7L93,22.3c-1.8-0.6-3.7-0.6-5.4,0.2c-1.7,0.8-3,2.2-3.7,4l-8.6,23.6l-8.6-23.6
	c-1.3-3.7-5.4-5.6-9.1-4.3L7,40.7c-3.7,1.3-5.6,5.4-4.2,9.1l26.9,74c0.7,1.8,2,3.2,3.7,4c0.9,0.4,2,0.7,3,0.7c0.8,0,1.6-0.1,2.4-0.4
	l36.5-13.3l36.5,13.3c0.8,0.3,1.6,0.4,2.4,0.4c1,0,2-0.2,3-0.7c1.7-0.8,3-2.2,3.7-4l26.9-74C148.5,48,148.4,46.1,147.6,44.4z
	 M71.2,110.4l-4.1,1.5l-30.2,11c-0.8,0.3-1.6-0.1-1.9-0.9l-26.9-74C7.8,47.1,8.2,46.3,9,46l50.6-18.4c0.2-0.1,0.3-0.1,0.5-0.1
	c0.6,0,1.2,0.4,1.4,1L74,63l1.3,3.6l13.1,35.9c0.1,0.4,0.1,0.8,0,1.1c-0.2,0.4-0.5,0.6-0.8,0.8L71.2,110.4z M142.5,47.9l-26.9,74
	c-0.2,0.5-0.6,0.7-0.8,0.8c-0.4,0.2-0.8,0.2-1.1,0l-30.2-11l5.9-2.1c1.8-0.7,3.2-2,4-3.7c0.8-1.7,0.9-3.6,0.2-5.4L78.3,58.4
	l10.9-29.9c0.2-0.5,0.6-0.7,0.8-0.8c0.4-0.2,0.8-0.2,1.1,0L141.7,46C142.4,46.3,142.8,47.1,142.5,47.9z"/>
<path class="st0" d="M105.1,63c1.1-0.2,2.2,0.2,2.8,1c2.4,3.2,7.6,11.3,5.1,17.2c-1.1,2.6-4.5,4.5-7.3,3.9c-1.5-0.3-2.7-1-3.6-1.9
	c-0.3-0.3-0.9-0.1-0.9,0.4c0,1.4,0.3,2.7,0.7,4c0.2,0.6-0.4,1.1-0.9,0.9c-1.7-0.6-4.6-1.7-6.3-2.3c-0.6-0.2-0.6-0.9-0.1-1.3
	c1.1-0.7,2.2-1.6,3.1-2.6c0.3-0.4,0-0.9-0.5-0.9c-1.3,0.1-2.7-0.2-4-0.9c-2.5-1.4-3.9-5-3-7.7C92.1,66.7,101.3,63.9,105.1,63z"/>
<path class="st0" d="M107.3,110.5l1.6-4.4c0.2,1.1,1.1,2,2.2,2.2c0.9,0.2,2-0.2,2.5-1c0.3-0.4,0.5-1,0.6-1.6h0
	c0.1-2.3-1.3-4.3-3.4-5.1c-1.3-0.5-2.7-0.4-4,0.2c-1.3,0.6-2.2,1.6-2.7,2.9l-1.8,4.9c-0.3,0.7-0.2,1.5,0.2,2.1
	c0.3,0.6,0.9,1.2,1.6,1.4c0.2,0.1,0.4,0.1,0.6,0.1C105.8,112.2,106.9,111.5,107.3,110.5z"/>
<path class="st0" d="M98,49.7c1.3-0.6,2.2-1.7,2.7-3l1.8-5c0.2-0.7,0.1-1.5-0.2-2.1c-0.3-0.6-0.9-1.2-1.6-1.4
	c-1.3-0.4-2.8,0.4-3.2,1.7l-1.7,4.2c-0.3-1-1.3-1.9-2.3-2c-0.8-0.1-1.7,0.3-2.2,0.9c-0.4,0.4-0.6,1.1-0.7,1.7
	C90.5,47,91.9,49,94,49.8c0.6,0.2,1.2,0.3,1.8,0.3C96.6,50.1,97.3,50,98,49.7z"/>
<path class="st0" d="M50.1,88l-12-5.6c-1.8-0.8-2.6-3-1.7-4.8l5.6-12c0.8-1.8,3-2.6,4.8-1.7l12,5.6c1.8,0.8,2.6,3,1.7,4.8l-5.6,12
	C54,88.1,51.9,88.9,50.1,88z"/>
<path class="st0" d="M74.6,101.9L74.6,101.9c0.1,0,0.2,0,0.3-0.1c0.1,0,0.2-0.1,0.3-0.1l0,0c1-0.4,1.7-1.4,1.7-2.5l0.1-8.1
	c0.1-1.2-0.8-2.5-2-2.8c-0.3-0.1-0.7-0.1-1.1,0c-0.3,0-0.5,0.1-0.7,0.2c-0.8,0.4-1.5,1.4-1.5,2.4v0.5l-0.5,0.2L70.7,91
	c-0.7-0.7-1.9-1-2.8-0.7c-0.2,0.1-0.5,0.2-0.7,0.4c-0.2,0.2-0.4,0.4-0.6,0.6c-0.7,0.9-0.6,2.4,0.1,3.3l5.5,6.4
	c0.5,0.5,1.2,0.8,2,0.8C74.4,101.9,74.5,101.9,74.6,101.9z"/>
<path class="st0" d="M23.1,62c0.9-0.4,1.7-1.4,1.7-2.5v-0.4l0.5-0.2l0.4,0.5c0.5,0.5,1.2,0.8,2,0.8v0c0.1,0,0.3,0,0.4,0
	c0.1,0,0.3-0.1,0.4-0.1l0,0c0.1,0,0.3-0.1,0.4-0.1c0.2-0.1,0.5-0.3,0.7-0.5c0.5-0.5,0.8-1.3,0.8-2c0-0.6-0.3-1.2-0.6-1.6l-5.4-6.3
	c-0.2-0.2-0.3-0.3-0.5-0.5c-0.6-0.4-1.5-0.6-2.2-0.4c-1.1,0.3-2,1.4-2,2.6l-0.1,8c-0.1,0.7,0.2,1.5,0.7,2c0.5,0.5,1.2,0.9,1.9,0.9
	C22.5,62.2,22.8,62.1,23.1,62z"/>
<path class="st0" d="M22.2,59.6L22.2,59.6L22.2,59.6z"/>
</svg>
