<?xml version="1.0" encoding="UTF-8"?>
<svg width="31px" height="31px" viewBox="0 0 31 31" version="1.1" xmlns="http://www.w3.org/2000/svg" xmlns:xlink="http://www.w3.org/1999/xlink">
    <!-- Generator: Sketch 55.2 (78181) - https://sketchapp.com -->
    <title>Group 19</title>
    <desc>Created with Sketch.</desc>
    <g id="Desktop" stroke="none" stroke-width="1" fill="none" fill-rule="evenodd">
        <g id="Product-Single" transform="translate(-623.000000, -610.000000)" fill="#44444D">
            <g id="Group-17" transform="translate(622.000000, 359.000000)">
                <g id="Group-15" transform="translate(1.000000, 251.000000)">
                    <g id="Group-19">
                        <path d="M30.4477963,31 L14.585745,31 C14.2809285,31 14.0335413,30.752 14.0335413,30.4464286 C14.0335413,30.1408571 14.2809285,29.8928571 14.585745,29.8928571 L29.8955926,29.8928571 L29.8955926,1.10714286 L5.1044074,1.10714286 L5.1044074,16.7698929 C5.1044074,17.0754643 4.85757235,17.3234643 4.5522037,17.3234643 C4.24738726,17.3234643 4,17.0754643 4,16.7698929 L4,0.553571429 C4,0.248 4.24738726,0 4.5522037,0 L30.4477963,0 C30.7531649,0 31,0.248 31,0.553571429 L31,30.4464286 C31,30.752 30.7531649,31 30.4477963,31" id="Fill-1"></path>
                        <path d="M27.4392074,8 L7.56079259,8 C7.25067429,8 7,7.776 7,7.5 C7,7.224 7.25067429,7 7.56079259,7 L27.4392074,7 C27.7493257,7 28,7.224 28,7.5 C28,7.776 27.7493257,8 27.4392074,8" id="Fill-3"></path>
                        <path d="M27.4531036,16 L14.5468964,16 C14.2450096,16 14,15.776 14,15.5 C14,15.224 14.2450096,15 14.5468964,15 L27.4531036,15 C27.7555373,15 28,15.224 28,15.5 C28,15.776 27.7555373,16 27.4531036,16" id="Fill-5"></path>
                        <path d="M27.4281555,24 L17.5718445,24 C17.2556145,24 17,23.776 17,23.5 C17,23.224 17.2556145,23 17.5718445,23 L27.4281555,23 C27.7443855,23 28,23.224 28,23.5 C28,23.776 27.7443855,24 27.4281555,24" id="Fill-7"></path>
                        <path d="M23.5,28 C23.2235,28 23,27.7534994 23,27.4497755 L23,3.55022449 C23,3.24650057 23.2235,3 23.5,3 C23.7765,3 24,3.24650057 24,3.55022449 L24,27.4497755 C24,27.7534994 23.7765,28 23.5,28" id="Fill-9"></path>
                        <path d="M8,16.1369289 C4.21603184,16.1369289 1.13700966,19.2157323 1.13700966,22.9994315 C1.13700966,26.7842677 4.21603184,29.8630711 8,29.8630711 C11.7839682,29.8630711 14.8629903,26.7842677 14.8629903,22.9994315 C14.8629903,19.2157323 11.7839682,16.1369289 8,16.1369289 M8,31 C3.5884025,31 0,27.411284 0,22.9994315 C0,18.588716 3.5884025,15 8,15 C12.4115975,15 16,18.588716 16,22.9994315 C16,27.411284 12.4115975,31 8,31" id="Fill-11"></path>
                        <path d="M8.33158329,27 C6.06821029,27 4.250354,26.0781664 4.00908387,24.8079978 C3.95108031,24.504807 4.17692396,24.2166643 4.5132212,24.1648321 C4.8501355,24.1118852 5.16792097,24.3169848 5.22530747,24.6196182 C5.34069754,25.2282291 6.56185762,25.8853281 8.33158329,25.8853281 C9.85571942,25.8853281 10.7658817,25.3514003 10.7658817,24.8358646 C10.7658817,24.567786 10.7658817,23.939111 8.10573964,23.5166504 C6.52545112,23.2664066 4.4255988,22.7491988 4.4255988,21.1580047 C4.4255988,19.8672147 5.90037019,19 8.09401551,19 C10.1210549,19 11.374302,20.0199248 11.6803634,20.9668385 C11.7753905,21.2622266 11.5878045,21.571548 11.2607631,21.6579351 C10.9312535,21.7443221 10.5912539,21.5743347 10.4956098,21.2789466 C10.3086408,20.7004319 9.423778,20.1146719 8.09401551,20.1146719 C6.68341827,20.1146719 5.65971712,20.5538526 5.65971712,21.1580047 C5.65971712,21.3653337 5.65971712,21.9967953 8.31862505,22.419256 C10.0328154,22.6912359 12,23.2117877 12,24.8358646 C12,26.1099345 10.4919074,27 8.33158329,27" id="Fill-13"></path>
                        <path d="M7.5,20 C7.2235,20 7,19.7046803 7,19.3408042 L7,17.6591958 C7,17.2953197 7.2235,17 7.5,17 C7.7765,17 8,17.2953197 8,17.6591958 L8,19.3408042 C8,19.7046803 7.7765,20 7.5,20" id="Fill-15"></path>
                        <path d="M7.5,29 C7.2235,29 7,28.7046803 7,28.3408042 L7,26.6591958 C7,26.2953197 7.2235,26 7.5,26 C7.7765,26 8,26.2953197 8,26.6591958 L8,28.3408042 C8,28.7046803 7.7765,29 7.5,29" id="Fill-17"></path>
                    </g>
                </g>
            </g>
        </g>
    </g>
</svg>