<?xml version="1.0" ?><svg id="Layer_2" style="enable-background:new 0 0 1000 1000;" version="1.1" viewBox="0 0 1000 1000" xml:space="preserve" xmlns="http://www.w3.org/2000/svg" xmlns:xlink="http://www.w3.org/1999/xlink"><path d="M224.194,364.482c-7.188,3.047-13.273,8.105-17.587,14.481c-4.314,6.369-6.851,14.117-6.847,22.367v371.98  c-0.001,5.493,1.123,10.778,3.154,15.567c3.048,7.188,8.108,13.272,14.483,17.586c6.369,4.314,14.115,6.851,22.363,6.847h165.859  c0,0,0.001,0,0.001,0c0,0,0.001,0,0.001,0h187.377c0,0,0,0,0.001,0s0.001,0,0.001,0H760.24c5.493,0.001,10.778-1.123,15.567-3.154  c7.188-3.048,13.272-8.108,17.585-14.483c4.314-6.369,6.851-14.115,6.847-22.362V520.01c0-0.003,0-0.006,0-0.01s0-0.006,0-0.01  V401.33c0.002-5.495-1.122-10.781-3.154-15.571c-3.048-7.189-8.109-13.273-14.485-17.586c-6.37-4.312-14.115-6.847-22.361-6.844  H239.76C234.267,361.329,228.983,362.452,224.194,364.482z M221.329,393.562c1.513-3.576,4.069-6.657,7.27-8.818  c3.208-2.162,7.001-3.409,11.161-3.413h155.861V510H219.759V401.33C219.761,398.55,220.319,395.949,221.329,393.562z M780.24,649.31  H603V530h177.24V649.31z M583,649.31H415.621V530H583V649.31z M583,669.31v124H415.621v-124H583z M219.759,530h175.861v119.31  H219.759V530z M415.621,510V381.33H583V510H415.621z M231.996,791.741c-3.576-1.513-6.658-4.07-8.821-7.272  c-2.163-3.209-3.411-7.001-3.415-11.159v-104h175.861v124H239.76C236.983,793.309,234.383,792.751,231.996,791.741z   M778.671,781.074c-1.513,3.576-4.07,6.658-7.271,8.821c-3.209,2.163-7.002,3.411-11.159,3.415H603v-124h177.24v104  C780.239,776.087,779.681,778.687,778.671,781.074z M768.005,382.898c3.576,1.512,6.658,4.068,8.82,7.268  c2.163,3.208,3.411,7.001,3.415,11.163V510H603V381.33h157.24C763.018,381.331,765.618,381.889,768.005,382.898z"/><path d="M162.213,850.289c7.17,4.851,15.881,7.695,25.167,7.691h625.53c6.185,0.001,12.13-1.259,17.519-3.54  c8.088-3.423,14.939-9.116,19.79-16.293c4.85-7.17,7.695-15.882,7.691-25.167V373.025c0-5.522-4.477-9.999-10-9.999  c-5.523,0-10,4.477-10,9.999l0,439.955c-0.002,3.479-0.7,6.742-1.961,9.728c-1.89,4.473-5.073,8.311-9.068,11.008  c-4.003,2.697-8.759,4.26-13.971,4.264H187.38c-3.479-0.001-6.743-0.699-9.729-1.961c-4.473-1.89-8.311-5.073-11.008-9.069  c-2.697-4.002-4.259-8.758-4.264-13.971V187.44c0.002-3.479,0.7-6.742,1.961-9.728c1.89-4.473,5.073-8.311,9.068-11.008  c4.002-2.697,8.759-4.26,13.971-4.264h625.53c3.479,0.001,6.742,0.7,9.728,1.961c4.473,1.89,8.311,5.073,11.008,9.069  c2.697,4.002,4.259,8.759,4.264,13.971v52.89c0,5.523,4.477,10,10,10c5.522,0,10-4.477,10-10h0v-52.89  c0.001-6.186-1.259-12.13-3.54-17.519c-3.423-8.089-9.116-14.939-16.293-19.79c-7.17-4.851-15.881-7.695-25.167-7.691H187.38  c-6.186-0.001-12.13,1.259-17.52,3.54c-8.088,3.423-14.939,9.116-19.79,16.293c-4.851,7.17-7.695,15.882-7.691,25.167v625.54  c-0.001,6.186,1.259,12.13,3.54,17.519C149.343,838.588,155.036,845.438,162.213,850.289z"/><path d="M422.907,310.713v-62.717l51.584,68.655c1.235,1.856,2.751,3.186,4.546,3.99c1.792,0.806,3.555,1.206,5.288,1.206  c3.215,0,6.031-1.142,8.443-3.433c2.412-2.288,3.618-5.535,3.618-9.742v-93.89c0-7.173-3.775-10.762-11.319-10.762  c-7.3,0-10.947,3.589-10.947,10.762v66.057l-54.182-72.737c-2.352-2.72-5.135-4.082-8.35-4.082c-3.093,0-5.691,0.928-7.793,2.783  c-2.105,1.855-3.155,4.392-3.155,7.608v96.302c0,7.422,3.712,11.133,11.133,11.133C419.196,321.846,422.907,318.135,422.907,310.713  z"/><path d="M540.824,235.656c3.525-3.647,7.7-6.555,12.525-8.721c4.824-2.163,10.02-3.247,15.587-3.247  c4.824,0,9.771,0.629,14.844,1.885c5.071,1.255,9.338,3.517,12.803,6.781c2.102,2.511,4.946,3.766,8.535,3.766  c2.844,0,5.41-1.05,7.701-3.154c2.288-2.102,3.433-4.7,3.433-7.793c0-1.485-0.371-2.998-1.113-4.546  c-0.742-1.545-1.609-2.812-2.598-3.804c-5.938-5.566-12.557-9.492-19.854-11.783c-7.3-2.288-15.215-3.433-23.75-3.433  c-8.66,0-16.732,1.67-24.215,5.004c-7.486,3.334-14.009,7.842-19.576,13.525c-5.567,5.683-9.959,12.258-13.174,19.729  c-3.218,7.474-4.825,15.349-4.825,23.623c0,8.399,1.607,16.274,4.825,23.623c3.215,7.35,7.607,13.803,13.174,19.361  c5.566,5.558,12.122,9.941,19.669,13.154c7.544,3.21,15.647,4.816,24.308,4.816c8.906,0,17.1-1.357,24.586-4.071  c7.483-2.714,13.977-6.628,19.483-11.748c5.502-5.12,9.771-11.411,12.803-18.874c3.029-7.463,4.546-15.943,4.546-25.444  c0-1.479-0.588-2.804-1.763-3.975c-1.177-1.171-2.569-1.76-4.175-1.76h-57.893c-7.793,0-11.689,3.743-11.689,11.223  c0,7.24,3.896,10.858,11.689,10.858h38.966c-2.722,7.176-7.393,12.589-14.009,16.236c-6.619,3.65-14.195,5.474-22.73,5.474  c-5.445,0-10.548-0.988-15.308-2.969c-4.764-1.977-8.939-4.732-12.525-8.257c-3.589-3.526-6.434-7.669-8.536-12.432  c-2.105-4.76-3.154-9.863-3.154-15.308c0-5.195,1.021-10.206,3.061-15.03C534.515,243.542,537.298,239.307,540.824,235.656z"/><path d="M311.221,246.14c1.227-3.586,1.841-7.544,1.841-11.875c0-4.204-0.864-8.133-2.592-11.783  c-1.728-3.647-4.103-6.833-7.124-9.556c-3.021-2.719-6.567-4.885-10.638-6.494c-4.07-1.606-8.388-2.412-12.951-2.412h-19.982  c-3.207,0-5.859,1.052-7.956,3.154c-2.099,2.105-3.146,4.703-3.146,7.793v95.931c0,3.094,1.047,5.691,3.146,7.794  c2.099,2.105,4.752,3.154,7.961,3.154h28.505c4.935,0,9.623-0.957,14.064-2.876c4.442-1.917,8.33-4.546,11.664-7.886  c3.332-3.34,5.953-7.237,7.866-11.69c1.914-4.453,2.871-9.278,2.871-14.473c0-2.598-0.311-5.349-0.925-8.257  c-0.618-2.905-1.667-5.72-3.146-8.443c-1.479-2.72-3.482-5.257-6.01-7.608c-2.528-2.348-5.639-4.268-9.335-5.752  C308.032,252.635,309.995,249.73,311.221,246.14z M270.571,226.101h9.176c3.244,0,5.958,1.113,8.144,3.34  c2.183,2.227,3.276,4.888,3.276,7.979c0,3.218-1.093,5.938-3.276,8.164c-2.186,2.227-4.9,3.34-8.144,3.34h-9.176V226.101z   M298.682,295.657c-2.783,2.74-6.28,4.108-10.484,4.108h-17.627v-28.946h17.627c4.204,0,7.701,1.403,10.484,4.204  c2.783,2.801,4.175,6.193,4.175,10.176C302.857,289.432,301.465,292.92,298.682,295.657z"/><path d="M341.45,299.765c-7.671,0-11.504,3.682-11.504,11.04c0,7.361,3.833,11.04,11.504,11.04h40.451  c7.422,0,11.133-3.618,11.133-10.858c0-7.48-3.711-11.223-11.133-11.223h-9.092v-73.665h9.092c7.422,0,11.133-3.711,11.133-11.133  c0-7.297-3.711-10.947-11.133-10.947H341.45c-7.671,0-11.504,3.589-11.504,10.762c0,7.547,3.833,11.319,11.504,11.319h9.463v73.665  H341.45z"/><path d="M676.74,319.712c7.544,3.154,15.586,4.731,24.122,4.731c8.535,0,16.543-1.577,24.029-4.731  c7.483-3.155,14.009-7.515,19.576-13.082c5.566-5.567,9.956-12.09,13.174-19.576c3.215-7.483,4.824-15.494,4.824-24.029  c0-8.411-1.577-16.358-4.731-23.844c-3.155-7.483-7.547-14.009-13.174-19.576c-5.63-5.567-12.247-9.988-19.854-13.267  c-7.607-3.276-15.865-4.917-24.771-4.917c-8.66,0-16.7,1.67-24.122,5.01c-7.422,3.34-13.888,7.857-19.39,13.545  c-5.506,5.691-9.806,12.278-12.896,19.762c-3.094,7.486-4.639,15.372-4.639,23.658c0,8.535,1.638,16.514,4.917,23.936  c3.276,7.422,7.7,13.887,13.267,19.39C662.638,312.229,669.193,316.558,676.74,319.712z M664.493,248.089  c1.977-4.885,4.7-9.153,8.164-12.803c3.461-3.647,7.576-6.555,12.339-8.721c4.76-2.163,9.927-3.247,15.494-3.247  c5.317,0,10.391,1.053,15.215,3.155c4.824,2.105,9.028,4.949,12.618,8.535c3.586,3.589,6.43,7.793,8.535,12.618  c2.102,4.824,3.154,9.959,3.154,15.401c0,5.445-1.021,10.577-3.061,15.401c-2.041,4.824-4.856,9.031-8.442,12.618  c-3.589,3.589-7.765,6.402-12.525,8.443c-4.764,2.041-9.927,3.062-15.494,3.062c-5.567,0-10.701-1.021-15.401-3.062  c-4.703-2.041-8.814-4.853-12.339-8.443c-3.526-3.586-6.28-7.729-8.257-12.432c-1.98-4.7-2.969-9.77-2.969-15.215  C661.524,258.079,662.513,252.977,664.493,248.089z"/><circle cx="847.91" cy="306.254" r="10"/></svg>