<?xml version="1.0" encoding="utf-8"?>
<!-- Generator: Adobe Illustrator 23.0.0, SVG Export Plug-In . SVG Version: 6.00 Build 0)  -->
<svg version="1.1" id="Layer_1" xmlns="http://www.w3.org/2000/svg" xmlns:xlink="http://www.w3.org/1999/xlink" x="0px" y="0px"
	 viewBox="0 0 128 128" style="enable-background:new 0 0 128 128;" xml:space="preserve">
<style type="text/css">
	.st0{fill:none;}
	.st1{fill:#666666;}
</style>
<title></title>
<g>
	<path class="st0" d="M100.8,110.3c-1.9,3.6-6.3,4.9-9.9,3L45.2,89c-3.6-1.9-4.9-6.3-3-9.9l24.3-45.7c1.9-3.6,6.3-4.9,9.9-3
		l45.7,24.3c3.6,1.9,4.9,6.3,3,9.9L100.8,110.3z"/>
	<path class="st1" d="M94.3,116.2c-1.5,0-3-0.3-4.4-1.1L44.3,90.7c-4.5-2.4-6.2-8.1-3.8-12.6l24.4-45.7c2.4-4.5,8.1-6.2,12.6-3.8
		l45.7,24.4c4.5,2.4,6.2,8.1,3.8,12.6l-24.4,45.7C100.9,114.4,97.6,116.2,94.3,116.2z M73,31.5c-1.9,0-3.8,1-4.7,2.8L43.9,80
		c-1.4,2.6-0.4,5.8,2.2,7.2l45.7,24.3c2.6,1.4,5.8,0.4,7.2-2.2l24.3-45.7c1.4-2.6,0.4-5.8-2.2-7.2L75.5,32.1
		C74.7,31.7,73.9,31.5,73,31.5z"/>
	<path class="st1" d="M24.4,95.1c-4,0-7.7-2.6-9-6.6L0.4,39C-1.1,34,1.7,28.8,6.6,27.3l49.5-15.1c4.9-1.5,10.1,1.3,11.6,6.2l4,13
		l-1.4,0.8c-0.9,0.5-1.6,1.2-2,2.1L43.9,80c-1.1,2.1-0.7,4.6,0.9,6.3l2.3,2.4l-20,6.1C26.2,95,25.3,95.1,24.4,95.1z M58.8,15.8
		c-0.5,0-1,0.1-1.5,0.2L7.8,31.1C5,32,3.4,35,4.2,37.8l15.1,49.5c0.9,2.8,3.8,4.4,6.7,3.5l14.3-4.3c-1.3-2.6-1.2-5.7,0.2-8.4l0,0
		l24.3-45.7c0.6-1.1,1.3-2,2.3-2.8l-3.1-10.1C63.2,17.3,61.1,15.8,58.8,15.8z"/>
	<circle class="st1" cx="59.5" cy="80.5" r="4.5"/>
	<circle class="st1" cx="108.9" cy="64.8" r="4.5"/>
	<circle class="st1" cx="83.7" cy="71.9" r="4.5"/>
</g>
<path class="st1" d="M21.7,46.5c-2.4,0.7-4.9-0.6-5.7-3c-0.7-2.4,0.6-4.9,3-5.7c2.4-0.7,4.9,0.6,5.7,3c0,0,0,0,0,0
	C25.4,43.2,24.1,45.7,21.7,46.5z"/>
<path class="st1" d="M56.3,35.9c-2.4,0.7-4.9-0.6-5.7-3c-0.7-2.4,0.6-4.9,3-5.7c2.4-0.7,4.9,0.6,5.7,3c0,0,0,0,0,0
	C60.1,32.6,58.7,35.2,56.3,35.9z"/>
<path class="st1" d="M43.6,58.2c-2.4,0.7-4.9-0.6-5.7-3c-0.7-2.4,0.6-4.9,3-5.7c2.4-0.7,4.9,0.6,5.7,3c0,0,0,0,0,0
	C47.4,55,46,57.5,43.6,58.2z"/>
<path class="st1" d="M32.5,81.9c-2.4,0.7-4.9-0.6-5.7-3c-0.7-2.4,0.6-4.9,3-5.7c2.4-0.7,4.9,0.6,5.7,3c0,0,0,0,0,0
	C36.2,78.7,34.9,81.2,32.5,81.9z"/>
</svg>
